STARTFONT 2.1
FONT -Monotype-Bookman Old Style-Bold-R-Normal--36-360-75-75-P-202-iso8859-2
SIZE 36 75 75
FONTBOUNDINGBOX 58 46 -7 -10

STARTPROPERTIES 24
FOUNDRY "Monotype"
FAMILY_NAME "Bookman Old Style"
WEIGHT_NAME "Bold"
SLANT "R"
SETWIDTH_NAME "Normal"
ADD_STYLE_NAME ""
PIXEL_SIZE 36
POINT_SIZE 360
RESOLUTION_X 75
RESOLUTION_Y 75
SPACING "P"
AVERAGE_WIDTH 202
CHARSET_REGISTRY "iso8859"
CHARSET_ENCODING "2"
FACE_NAME "Bookman Old Style Bold ISO Latin2"
_DEC_DEVICE_FONTNAMES "PS=bookmanoldstyle-b-lat2"
COPYRIGHT "Copyright (c) 1993 Monotype Typography Ltd."
CAP_HEIGHT 31
X_HEIGHT 22
WEIGHT 10
QUAD_WIDTH 24
DEFAULT_CHAR 160
FONT_DESCENT 10
FONT_ASCENT 36
ENDPROPERTIES

CHARS 191

STARTCHAR space
ENCODING 32
SWIDTH 340 0
DWIDTH 13 0
BBX 0 0 0 0
BITMAP
ENDCHAR

STARTCHAR exclam
ENCODING 33
SWIDTH 360 0
DWIDTH 14 0
BBX 7 26 3 0
BITMAP
38
7C
FE
FE
FE
FE
FE
7C
7C
7C
7C
7C
7C
7C
7C
38
38
38
00
38
7C
FE
FE
FE
7C
38
ENDCHAR

STARTCHAR quotedbl
ENCODING 34
SWIDTH 420 0
DWIDTH 16 0
BBX 11 11 2 15
BITMAP
60C0
F1E0
F1E0
F1E0
F1E0
F1E0
F1E0
60C0
60C0
60C0
60C0
ENDCHAR

STARTCHAR numbersign
ENCODING 35
SWIDTH 600 0
DWIDTH 23 0
BBX 19 26 2 0
BITMAP
03C700
03C700
038700
038700
038F00
038F00
038E00
078E00
7FFFE0
7FFFE0
7FFFE0
071E00
071E00
071E00
0F1C00
FFFFC0
FFFFC0
FFFFC0
0E3C00
0E3C00
0E3C00
1E3800
1E3800
1C3800
1C3800
1C7800
ENDCHAR

STARTCHAR dollar
ENCODING 36
SWIDTH 660 0
DWIDTH 25 0
BBX 22 34 2 -4
BITMAP
007800
007800
007800
007800
01F800
0FFEE0
3FFFE0
7FFFE0
7F7FF0
FC7BF0
FC79F0
FC78F0
FF7878
7FF860
7FFC00
3FFF80
1FFFE0
07FFF0
01FFF8
707FF8
F07BFC
F879FC
FC78FC
FC78FC
7F78F8
7FFBF8
7FFFF0
77FFE0
71FF80
007C00
007800
007800
007800
007800
ENDCHAR

STARTCHAR percent
ENCODING 37
SWIDTH 940 0
DWIDTH 36 0
BBX 34 26 1 0
BITMAP
078001E000
3FF001C000
7FF8038000
7878078000
F87C070000
F03C0E0000
F03C1E0000
F03C1C0000
F03C380000
F87C380000
7878700000
7FF8F00000
1FF0E00000
0781C07800
0003C3FF00
000387FF80
00070787C0
000F0F87C0
000E0F03C0
001C0F03C0
001C0F03C0
00380F87C0
00700787C0
007007FF80
00E003FF00
01E0007800
ENDCHAR

STARTCHAR ampersand
ENCODING 38
SWIDTH 800 0
DWIDTH 30 0
BBX 29 26 2 0
BITMAP
03F80000
07FE0000
0FFF0000
0F9F0000
1F0F0000
1F0F0000
1F0F0000
0F1F0000
0FFE0000
07F87FC0
07FC7FC0
1FFE7FC0
3FBF7FC0
7F1F9E00
7E0F9E00
FC0FDE00
FC0FDCF0
FC07FDF0
FC07F9F8
FE07F8F8
FF03F0F8
7F87F8F0
7FFFFFF0
3FFFFFE0
1FFE7FC0
07F81F00
ENDCHAR

STARTCHAR quoteright
ENCODING 39
SWIDTH 320 0
DWIDTH 12 0
BBX 7 14 3 13
BITMAP
78
FC
FE
FE
FE
FE
6E
1E
3C
3C
F8
F0
E0
40
ENDCHAR

STARTCHAR parenleft
ENCODING 40
SWIDTH 320 0
DWIDTH 12 0
BBX 9 36 2 -9
BITMAP
0400
0F80
0F00
1F00
3F00
3E00
3E00
7E00
7E00
7C00
7C00
FC00
FC00
FC00
FC00
FC00
FC00
FC00
FC00
FC00
FC00
FC00
FC00
FC00
FC00
7C00
7C00
7C00
7E00
3E00
3E00
1F00
1F00
0F80
0600
0200
ENDCHAR

STARTCHAR parenright
ENCODING 41
SWIDTH 320 0
DWIDTH 12 0
BBX 8 36 2 -9
BITMAP
20
F0
F0
F8
7C
7C
7C
7E
3E
3E
3E
3F
3F
3F
3F
3F
3F
3F
3F
3F
3F
3F
3F
3F
3F
3F
3E
3E
7E
7C
7C
7C
F8
F0
60
20
ENDCHAR

STARTCHAR asterisk
ENCODING 42
SWIDTH 460 0
DWIDTH 17 0
BBX 16 15 1 11
BITMAP
0180
03C0
03C0
03C0
718E
F99F
FFFF
7FFE
03C0
07E0
0E70
1E78
3E7C
3C38
1838
ENDCHAR

STARTCHAR plus
ENCODING 43
SWIDTH 600 0
DWIDTH 23 0
BBX 18 19 2 3
BITMAP
01E000
01E000
01E000
01E000
01E000
01E000
01E000
01E000
FFFFC0
FFFFC0
FFFFC0
01E000
01E000
01E000
01E000
01E000
01E000
01E000
01E000
ENDCHAR

STARTCHAR comma
ENCODING 44
SWIDTH 340 0
DWIDTH 13 0
BBX 8 14 3 -7
BITMAP
38
7C
FE
FE
FF
FF
66
1E
1E
3C
7C
F8
70
20
ENDCHAR

STARTCHAR minus
ENCODING 45
SWIDTH 600 0
DWIDTH 23 0
BBX 19 3 2 11
BITMAP
FFFFE0
FFFFE0
FFFFE0
ENDCHAR

STARTCHAR period
ENCODING 46
SWIDTH 340 0
DWIDTH 13 0
BBX 7 7 3 0
BITMAP
38
7C
FE
FE
FE
7C
38
ENDCHAR

STARTCHAR slash
ENCODING 47
SWIDTH 600 0
DWIDTH 23 0
BBX 16 33 3 -5
BITMAP
001F
003E
003E
003E
007C
007C
007C
00F8
00F8
00F8
01F0
01F0
01F0
03E0
03E0
03E0
07C0
07C0
07C0
0F80
0F80
0F80
1F00
1F00
1F00
3E00
3E00
3E00
7C00
7C00
FC00
F800
F800
ENDCHAR

STARTCHAR zero
ENCODING 48
SWIDTH 660 0
DWIDTH 25 0
BBX 22 26 2 0
BITMAP
01FE00
07FF80
0FFFC0
1FFFE0
3F87F0
7F03F8
7E01F8
7E01FC
FE01FC
FC00FC
FC00FC
FC00FC
FC00FC
FC00FC
FC00FC
FC00FC
FC00FC
FE01FC
FE01FC
7E01F8
7F03F8
3F87F0
1FFFE0
0FFFC0
07FF80
01FE00
ENDCHAR

STARTCHAR one
ENCODING 49
SWIDTH 660 0
DWIDTH 25 0
BBX 16 26 6 0
BITMAP
00E0
07E0
FFE0
FFE0
FFE0
FFE0
07E0
07E0
07E0
07E0
07E0
07E0
07E0
07E0
07E0
07E0
07E0
07E0
07E0
07E0
07E0
07E0
FFFF
FFFF
FFFF
FFFF
ENDCHAR

STARTCHAR two
ENCODING 50
SWIDTH 660 0
DWIDTH 25 0
BBX 21 27 2 -1
BITMAP
00FC00
07FF80
1FFFC0
3FFFE0
7FFFF0
7C0FF0
7807F8
F003F8
F003F8
F003F8
F003F0
0007F0
0007E0
000FE0
001FC0
003F80
00FE00
01FC00
03F038
07E078
1F8078
3FFFF8
FFFFF0
FFFFF0
FFFFF0
FFFFF0
000070
ENDCHAR

STARTCHAR three
ENCODING 51
SWIDTH 660 0
DWIDTH 25 0
BBX 21 26 2 0
BITMAP
01FC00
07FF00
1FFFC0
3FFFE0
3FFFE0
7C0FF0
7803F0
7803F0
7803F0
0003E0
0007E0
01FF80
01FE00
01FFC0
01FFE0
0007F0
2003F8
F801F8
FC01F8
FC01F8
FE03F8
FF07F0
7FFFF0
3FFFE0
0FFF80
01FC00
ENDCHAR

STARTCHAR four
ENCODING 52
SWIDTH 660 0
DWIDTH 25 0
BBX 23 26 1 0
BITMAP
000FC0
001FC0
003FC0
007FC0
00FFC0
01FFC0
03F7C0
07EFC0
0FCFC0
1F8FC0
3F0FC0
7E0FC0
FC0FC0
F00FC0
FFFFFE
FFFFFE
FFFFFE
FFFFFE
FFFFFE
000FC0
000FC0
000FC0
000FC0
000FC0
000FC0
000FC0
ENDCHAR

STARTCHAR five
ENCODING 53
SWIDTH 660 0
DWIDTH 25 0
BBX 21 27 3 0
BITMAP
0000E0
3FFFE0
3FFFE0
3FFFE0
7FFFE0
7FFFE0
7FFFE0
7C0000
7C0000
7DF000
7FFF00
7FFFC0
7FFFE0
7FFFF0
400FF0
0003F8
0001F8
7001F8
F801F8
F801F8
FC01F0
FE03F0
FF07F0
7FFFE0
3FFFC0
0FFF00
03F800
ENDCHAR

STARTCHAR six
ENCODING 54
SWIDTH 660 0
DWIDTH 25 0
BBX 22 26 2 0
BITMAP
0007F0
007FF0
01FFF0
03FFF0
0FFC00
1FE000
1F8000
3F0000
7F0000
7E7F80
7FFFE0
FFFFF0
FFFFF8
FF83FC
FF01FC
FE01FC
FE00FC
FE00FC
7E00FC
7E01FC
7F01FC
3F87F8
1FFFF0
0FFFE0
07FFC0
00FF00
ENDCHAR

STARTCHAR seven
ENCODING 55
SWIDTH 660 0
DWIDTH 25 0
BBX 22 27 2 0
BITMAP
380000
3FFFFC
7FFFFC
7FFFFC
7FFFFC
7FFFF8
FFFFF0
F001F0
F003E0
E007C0
200F80
001F80
001F00
003F00
007E00
007E00
00FC00
00FC00
01FC00
01F800
01F800
03F800
03F800
03F800
03F800
03F000
03F000
ENDCHAR

STARTCHAR eight
ENCODING 56
SWIDTH 660 0
DWIDTH 25 0
BBX 22 26 1 0
BITMAP
01FF00
07FFC0
1FFFE0
3FFFF0
3F03F8
7E01F8
7E01F8
7F01F8
7F83F0
3FE7E0
3FFFC0
1FFF80
0BFFC0
07FFF0
1FFFF8
3F1FFC
7E07FC
FC01FC
FC00FC
FC00FC
FE00F8
7F03F8
3FFFF0
1FFFE0
0FFFC0
01FE00
ENDCHAR

STARTCHAR nine
ENCODING 57
SWIDTH 660 0
DWIDTH 25 0
BBX 22 26 2 0
BITMAP
03FE00
0FFF80
1FFFC0
3FFFE0
7F07F0
FE03F8
FE01F8
FC01F8
FC01FC
FC01FC
FE01FC
FE03FC
7F87FC
7FFFFC
3FFFFC
1FFDF8
07F1F8
0003F8
0007F0
000FE0
001FE0
00FFC0
1FFF00
1FFE00
1FF800
1F0000
ENDCHAR

STARTCHAR colon
ENCODING 58
SWIDTH 340 0
DWIDTH 13 0
BBX 7 19 3 0
BITMAP
38
7C
FE
FE
FE
7C
38
00
00
00
00
00
38
7C
FE
FE
FE
7C
38
ENDCHAR

STARTCHAR semicolon
ENCODING 59
SWIDTH 340 0
DWIDTH 13 0
BBX 8 26 3 -7
BITMAP
38
7C
FE
FE
FE
7C
38
00
00
00
00
00
38
7C
FE
FF
FF
7F
37
0E
1E
3E
7C
F8
70
20
ENDCHAR

STARTCHAR less
ENCODING 60
SWIDTH 600 0
DWIDTH 23 0
BBX 19 20 2 3
BITMAP
000060
0001E0
0007E0
001FE0
007F00
01FC00
0FF000
3FC000
FF0000
F80000
FC0000
FF0000
3FC000
0FF000
03FC00
00FF00
001FC0
0007E0
0001E0
000060
ENDCHAR

STARTCHAR equal
ENCODING 61
SWIDTH 600 0
DWIDTH 23 0
BBX 19 11 2 7
BITMAP
FFFFE0
FFFFE0
FFFFE0
FFFFE0
000000
000000
000000
FFFFE0
FFFFE0
FFFFE0
FFFFE0
ENDCHAR

STARTCHAR greater
ENCODING 62
SWIDTH 600 0
DWIDTH 23 0
BBX 19 20 2 3
BITMAP
C00000
F00000
FC0000
FF0000
3FC000
07F000
01FC00
007F80
001FE0
0003E0
0007E0
001FE0
007F80
01FE00
07F000
1FC000
FF0000
FC0000
F00000
C00000
ENDCHAR

STARTCHAR question
ENCODING 63
SWIDTH 660 0
DWIDTH 25 0
BBX 21 26 2 0
BITMAP
07FC00
1FFF00
3FFFC0
7FFFE0
FF0FF0
FE03F0
7C01F8
3801F8
0001F8
0001F8
0007F8
03FFF0
03FFF0
03FFE0
03FF80
03FC00
03C000
03C000
000000
038000
07C000
0FE000
0FE000
0FE000
07C000
038000
ENDCHAR

STARTCHAR at
ENCODING 64
SWIDTH 820 0
DWIDTH 31 0
BBX 33 34 0 -8
BITMAP
0007FC0000
003C078000
00E000C000
0180002000
0700001000
0E00000800
0C00000C00
1800000400
3803CF0400
30076F0200
700E2F0200
601C3E0200
603C3E0200
E03C3E0200
C0783E0200
C0783C0200
C0F87C0200
C0F07C0400
C0F0F80400
C1F0F80C00
C1F1780800
C1F3701000
41FEF03000
61FCF04180
60F8F98100
30F07E0200
3000000600
1800000400
0800000800
0C00001000
0300006000
01C001C000
00700F0000
000FF00000
ENDCHAR

STARTCHAR A
ENCODING 65
SWIDTH 720 0
DWIDTH 27 0
BBX 27 26 0 0
BITMAP
001F8000
003F8000
003FC000
007FC000
007FC000
007FE000
00FFE000
00F7F000
00F7F000
01F3F000
01E3F800
03E3F800
03E1F800
03C1FC00
07FFFC00
07FFFE00
0FFFFE00
0FFFFE00
0F007F00
1F007F00
1F007F80
3F003F80
FFC1FFE0
FFC1FFE0
FFC1FFE0
FFC1FFE0
ENDCHAR

STARTCHAR B
ENCODING 66
SWIDTH 720 0
DWIDTH 27 0
BBX 25 26 2 0
BITMAP
FFFFE000
FFFFFC00
FFFFFE00
3FFFFF00
1F80FF00
1F807F00
1F803F00
1F803F00
1F807F00
1F80FE00
1FFFFC00
1FFFE000
1FFFF800
1FFFFE00
1F80FF00
1F803F80
1F803F80
1F803F80
1F803F80
1F803F80
1F807F80
1F81FF00
FFFFFF00
FFFFFE00
FFFFF800
FFFFE000
ENDCHAR

STARTCHAR C
ENCODING 67
SWIDTH 740 0
DWIDTH 28 0
BBX 26 26 1 0
BITMAP
007F8E00
03FFFE00
07FFFE00
0FFFFF00
1FE0FF00
3FC03F00
7F801F00
7F000F80
7F000780
FE000780
FE000000
FE000000
FE000000
FE000000
FE000000
FE000000
FF000000
7F000380
7F8003C0
3FC00F80
3FE01F80
1FF87F00
0FFFFE00
07FFF800
03FFF000
007FC000
ENDCHAR

STARTCHAR D
ENCODING 68
SWIDTH 780 0
DWIDTH 30 0
BBX 27 26 2 0
BITMAP
FFFFE000
FFFFF800
FFFFFE00
3FFFFF00
1F81FF80
1F807F80
1F803FC0
1F801FC0
1F801FC0
1F800FE0
1F800FE0
1F800FE0
1F800FE0
1F800FE0
1F800FE0
1F800FE0
1F801FE0
1F801FC0
1F801FC0
1F803F80
1F807F80
1F83FF00
FFFFFE00
FFFFFC00
FFFFF000
FFFF8000
ENDCHAR

STARTCHAR E
ENCODING 69
SWIDTH 720 0
DWIDTH 27 0
BBX 26 26 2 0
BITMAP
FFFFFC00
FFFFFC00
FFFFFE00
3FFFFE00
1F807E00
1F801F00
1F800F00
1F838780
1F838600
1F878000
1FFF8000
1FFF8000
1FFF8000
1FFF8000
1F878000
1F838300
1F8383C0
1F838780
1F800780
1F800F80
1F803F00
1FC0FF00
FFFFFF00
FFFFFE00
FFFFFE00
FFFFFE00
ENDCHAR

STARTCHAR F
ENCODING 70
SWIDTH 680 0
DWIDTH 26 0
BBX 24 26 2 0
BITMAP
FFFFF8
FFFFF8
FFFFFC
7FFFFC
1F80FC
1F803E
1F801E
1F871F
1F870E
1F8700
1F8F00
1FFF00
1FFF00
1FFF00
1FFF00
1F8F00
1F8700
1F8700
1F8700
1F8000
1F8000
1F8000
FFF000
FFF000
FFF000
FFF000
ENDCHAR

STARTCHAR G
ENCODING 71
SWIDTH 780 0
DWIDTH 30 0
BBX 28 26 1 0
BITMAP
007F8E00
03FFEE00
07FFFE00
0FFFFF00
1FE0FF00
3FC03F00
7F801F00
7F000F80
7F000780
FF000600
FE000000
FE000000
FE01FFF0
FE01FFF0
FE01FFF0
FE01FFF0
FF001F80
7F001F80
7F801F80
3F801F80
3FC03F80
1FF0FF80
0FFFFF80
07FFFF80
03FFE780
007F8780
ENDCHAR

STARTCHAR H
ENCODING 72
SWIDTH 820 0
DWIDTH 31 0
BBX 28 26 2 0
BITMAP
FFF0FFF0
FFF0FFF0
FFF0FFF0
FFF0FFF0
1F801F80
1F801F80
1F801F80
1F801F80
1F801F80
1F801F80
1FFFFF80
1FFFFF80
1FFFFF80
1FFFFF80
1F801F80
1F801F80
1F801F80
1F801F80
1F801F80
1F801F80
1F801F80
1FC03FC0
FFF0FFF0
FFF0FFF0
FFF0FFF0
FFF0FFF0
ENDCHAR

STARTCHAR I
ENCODING 73
SWIDTH 400 0
DWIDTH 15 0
BBX 12 26 2 0
BITMAP
FFF0
FFF0
FFF0
FFF0
1F80
1F80
1F80
1F80
1F80
1F80
1F80
1F80
1F80
1F80
1F80
1F80
1F80
1F80
1F80
1F80
1F80
1F80
FFF0
FFF0
FFF0
FFF0
ENDCHAR

STARTCHAR J
ENCODING 74
SWIDTH 640 0
DWIDTH 24 0
BBX 23 26 0 0
BITMAP
001FFE
001FFE
001FFE
001FFE
0003F0
0003F0
0003F0
0003F0
0003F0
0003F0
0003F0
0003F0
0003F0
0003F0
1803F0
7C03F0
7E03F0
FE03F0
FE03F0
FE07F0
7E07F0
7F0FE0
3FFFE0
1FFFC0
0FFF00
03FC00
ENDCHAR

STARTCHAR K
ENCODING 75
SWIDTH 800 0
DWIDTH 30 0
BBX 29 26 2 0
BITMAP
FFF0FFE0
FFF0FFE0
FFF0FFE0
FFF0FFE0
1F803F80
1F807E00
1F80FC00
1F81F800
1F83F000
1F87E000
1F9FC000
1FBFE000
1FBFE000
1FFFF000
1FFBF800
1FF3FC00
1FE1FC00
1F81FE00
1F80FF00
1F807F80
1F803F80
1F803FC0
FFF0FFF8
FFF0FFF8
FFF0FFF8
FFF0FFF8
ENDCHAR

STARTCHAR L
ENCODING 76
SWIDTH 640 0
DWIDTH 24 0
BBX 23 26 2 0
BITMAP
FFF000
FFF000
FFF000
FFF000
1F8000
1F8000
1F8000
1F8000
1F8000
1F8000
1F8000
1F8000
1F8000
1F8000
1F8000
1F8010
1F801E
1F803C
1F803C
1F807C
1F80F8
1F83F8
FFFFF8
FFFFF0
FFFFF0
FFFFF0
ENDCHAR

STARTCHAR M
ENCODING 77
SWIDTH 940 0
DWIDTH 36 0
BBX 32 26 2 0
BITMAP
FFE00FFF
FFF00FFF
FFF00FFF
FFF01FFF
1FF81FF8
1EF81EF8
1EF81DF8
1EF83DF8
1EFC3DF8
1EFC3DF8
1E7C79F8
1E7E79F8
1E7E79F8
1E3EF1F8
1E3EF1F8
1E3F71F8
1E3FE1F8
1E1FE1F8
1E1FE1F8
1E1FE1F8
1E0FC1F8
1E0FC1F8
FFCFCFFF
FFC78FFF
FFC78FFF
FFC78FFF
ENDCHAR

STARTCHAR N
ENCODING 78
SWIDTH 740 0
DWIDTH 28 0
BBX 25 26 2 0
BITMAP
FFC1FF80
FFE1FF80
FFE1FF80
FFF1FF80
1FF03C00
1FF83C00
1FF83C00
1EFC3C00
1EFC3C00
1E7E3C00
1E7E3C00
1E3F3C00
1E3F3C00
1E1FBC00
1E1FBC00
1E0FFC00
1E0FFC00
1E07FC00
1E07FC00
1E03FC00
1E03FC00
3E01FC00
FFC1FC00
FFC0FC00
FFC0FC00
FFC07C00
ENDCHAR

STARTCHAR O
ENCODING 79
SWIDTH 800 0
DWIDTH 30 0
BBX 28 26 1 0
BITMAP
007FE000
01FFF800
07FFFE00
0FFFFF00
1FF07F80
3FC03FC0
3F801FE0
7F000FE0
7F000FE0
FF000FF0
FE0007F0
FE0007F0
FE0007F0
FE0007F0
FE0007F0
FE0007F0
FF000FF0
7F000FE0
7F000FE0
3F801FE0
3FC03FC0
1FF0FF80
0FFFFF00
07FFFE00
01FFF800
003FE000
ENDCHAR

STARTCHAR P
ENCODING 80
SWIDTH 660 0
DWIDTH 25 0
BBX 23 26 2 0
BITMAP
FFFF80
FFFFF0
FFFFF8
FFFFFC
1F83FC
1F81FE
1F80FE
1F80FE
1F80FE
1F80FE
1F81FC
1F83FC
1FFFF8
1FFFF8
1FFFE0
1FFF80
1F8000
1F8000
1F8000
1F8000
1F8000
1F8000
FFF000
FFF000
FFF000
FFF000
ENDCHAR

STARTCHAR Q
ENCODING 81
SWIDTH 800 0
DWIDTH 30 0
BBX 28 33 1 -7
BITMAP
007FE000
01FFF800
07FFFE00
0FFFFF00
1FF07F80
3FC03FC0
3F801FE0
7F800FE0
7F000FE0
FF000FF0
FE0007F0
FE0007F0
FE0007F0
FE0007F0
FE0007F0
FE0007F0
FF000FF0
7F000FE0
7F000FE0
3F801FE0
3FC03FC0
1FE07F80
0FFFFF00
07FFFE00
01FFF800
007FE000
001F8000
001FC000
001FE0E0
000FFFE0
000FFFF0
0003FFC0
0000FF00
ENDCHAR

STARTCHAR R
ENCODING 82
SWIDTH 780 0
DWIDTH 30 0
BBX 28 26 1 0
BITMAP
FFFFF800
FFFFFE00
FFFFFF00
FFFFFF80
1F807F80
1F803FC0
1F801FC0
1F801FC0
1F801FC0
1F803FC0
1F807F80
1FFFFF00
1FFFFE00
1FFFFC00
1FFFE000
1F8FF000
1F87F800
1F83F800
1F83FC00
1F81FE00
1F80FF00
1FC07F80
FFF87FF0
FFF83FF0
FFF81FF0
FFF80FF0
ENDCHAR

STARTCHAR S
ENCODING 83
SWIDTH 660 0
DWIDTH 25 0
BBX 23 26 2 0
BITMAP
03FC70
0FFF70
3FFFF0
7FFFF8
7E07F8
FC01F8
FC00F8
FE007C
FF003C
7FF030
7FFE00
3FFFC0
1FFFF0
0FFFF8
01FFFC
603FFC
F003FE
F800FE
F8007E
FC007E
FF007C
7FC1FC
7FFFF8
7FFFF0
7BFFE0
707F00
ENDCHAR

STARTCHAR T
ENCODING 84
SWIDTH 700 0
DWIDTH 27 0
BBX 26 27 0 0
BITMAP
1C000E00
3FFFFF00
3FFFFF00
3FFFFF00
7FFFFF80
7E3F1F80
7C3F0F80
F83F07C0
F03F03C0
F03F03C0
003F0000
003F0000
003F0000
003F0000
003F0000
003F0000
003F0000
003F0000
003F0000
003F0000
003F0000
003F0000
003F0000
01FFE000
01FFE000
01FFE000
01FFE000
ENDCHAR

STARTCHAR U
ENCODING 85
SWIDTH 740 0
DWIDTH 28 0
BBX 26 26 1 0
BITMAP
FFF0FFC0
FFF0FFC0
FFF0FFC0
FFF0FFC0
1F801F00
1F801E00
1F801E00
1F801E00
1F801E00
1F801E00
1F801E00
1F801E00
1F801E00
1F801E00
1F801E00
1F801E00
1F801E00
1F801E00
1FC01E00
1FC03E00
1FE07E00
0FF0FC00
07FFF800
07FFF800
01FFE000
007F8000
ENDCHAR

STARTCHAR V
ENCODING 86
SWIDTH 720 0
DWIDTH 27 0
BBX 27 26 0 0
BITMAP
FFF07FE0
FFF07FE0
FFF07FE0
FFF07FE0
3FC00F80
1FC00F80
1FC01F00
1FE01F00
0FE01E00
0FE03E00
07F03E00
07F03C00
07F07C00
03F87800
03F8F800
01F8F800
01FCF000
01FDF000
00FDF000
00FFE000
007FE000
007FC000
007FC000
003FC000
003F8000
001F8000
ENDCHAR

STARTCHAR W
ENCODING 87
SWIDTH 940 0
DWIDTH 36 0
BBX 35 26 0 0
BITMAP
FFF7FF3FE0
FFF7FF3FE0
FFF7FF3FE0
FFF7FF3FE0
1FC1F80F80
1FC1F80F80
1FC1FC0F00
0FC0FC1F00
0FE0FC1F00
0FE0FC1F00
07E0FE1E00
07E0FE3E00
07F0FE3E00
07F1FE3C00
03F1FF3C00
03F1FF7C00
03FBDF7800
01FB9FB800
01FB9FF800
01FF9FF800
01FF8FF000
00FF0FF000
00FF0FF000
00FF0FE000
007E07E000
007E07E000
ENDCHAR

STARTCHAR X
ENCODING 88
SWIDTH 780 0
DWIDTH 30 0
BBX 30 26 0 0
BITMAP
7FFE7FF8
7FFE7FF8
7FFE7FF8
7FFE6FF8
0FF81FC0
07F81F80
03FC3F00
01FE7E00
00FF7C00
007FF800
003FF000
001FE000
001FC000
001FE000
003FF000
007FF800
00FDFC00
01F9FE00
03F0FF00
07E07F80
0FC07FC0
1F803FE0
FFF0FFFC
FFF0FFFC
FFF0FFFC
FFF0FFFC
ENDCHAR

STARTCHAR Y
ENCODING 89
SWIDTH 700 0
DWIDTH 27 0
BBX 26 26 0 0
BITMAP
FFF8FFC0
FFF8FFC0
FFF8FFC0
FFF8FFC0
3FC03F00
1FE03E00
0FE07C00
0FF07C00
07F0F800
03F9F000
03FDF000
01FFE000
00FFC000
00FFC000
007F8000
003F0000
003F0000
003F0000
003F0000
003F0000
003F0000
003F0000
01FFE000
01FFE000
01FFE000
01FFE000
ENDCHAR

STARTCHAR Z
ENCODING 90
SWIDTH 640 0
DWIDTH 24 0
BBX 23 26 1 0
BITMAP
1FFFFC
1FFFFC
3FFFFC
3FFBFC
7F07F8
7C07F0
780FE0
F81FE0
F03FC0
603F80
007F00
00FF00
01FE00
01FC00
03F800
07F808
0FF01E
0FE01E
1FC03C
3FC07C
7F80FC
7F07F8
FFFFF8
FFFFF8
FFFFF0
FFFFF0
ENDCHAR

STARTCHAR bracketleft
ENCODING 91
SWIDTH 300 0
DWIDTH 11 0
BBX 9 36 2 -9
BITMAP
FF80
FF80
FF80
FF80
F800
F800
F800
F800
F800
F800
F800
F800
F800
F800
F800
F800
F800
F800
F800
F800
F800
F800
F800
F800
F800
F800
F800
F800
F800
F800
F800
F800
FF80
FF80
FF80
FF80
ENDCHAR

STARTCHAR backslash
ENCODING 92
SWIDTH 600 0
DWIDTH 23 0
BBX 16 33 3 -5
BITMAP
F800
F800
7C00
7C00
7C00
3E00
3E00
3E00
1F00
1F00
1F00
0F80
0F80
0F80
07C0
07C0
07C0
03E0
03E0
03E0
01F0
01F0
01F0
00F8
00F8
00F8
007C
007C
003C
003E
003E
001E
001F
ENDCHAR

STARTCHAR bracketright
ENCODING 93
SWIDTH 300 0
DWIDTH 11 0
BBX 9 36 0 -9
BITMAP
FF80
FF80
FF80
FF80
0F80
0F80
0F80
0F80
0F80
0F80
0F80
0F80
0F80
0F80
0F80
0F80
0F80
0F80
0F80
0F80
0F80
0F80
0F80
0F80
0F80
0F80
0F80
0F80
0F80
0F80
0F80
0F80
FF80
FF80
FF80
FF80
ENDCHAR

STARTCHAR asciicircum
ENCODING 94
SWIDTH 600 0
DWIDTH 23 0
BBX 19 15 2 11
BITMAP
01F000
01F000
03F800
03F800
07FC00
07BC00
0F3E00
0F1E00
1E1F00
1E0F00
3C0F80
3C0780
7807C0
7803C0
F003E0
ENDCHAR

STARTCHAR underscore
ENCODING 95
SWIDTH 500 0
DWIDTH 19 0
BBX 19 2 0 -5
BITMAP
FFFFE0
FFFFE0
ENDCHAR

STARTCHAR quoteleft
ENCODING 96
SWIDTH 320 0
DWIDTH 12 0
BBX 8 14 2 13
BITMAP
04
0E
1F
3E
7C
78
F0
F4
FE
FF
FF
7E
7E
1C
ENDCHAR

STARTCHAR a
ENCODING 97
SWIDTH 580 0
DWIDTH 22 0
BBX 20 19 1 0
BITMAP
03F000
0FFE00
3FFF00
7FFF80
7E1F80
7C1F80
7C1F80
181F80
03FF80
1FFF80
7FFF80
7F1F80
FC1F80
FC1F80
FE3F80
FFFFF0
7FFFF0
3FE7F0
1F03F0
ENDCHAR

STARTCHAR b
ENCODING 98
SWIDTH 600 0
DWIDTH 23 0
BBX 22 28 -1 0
BITMAP
038000
3F8000
FF8000
FF8000
FF8000
1F8000
1F8000
1F8000
1F8000
1F9FC0
1FFFE0
1FFFF0
1FFFF8
1FE3F8
1F81FC
1F81FC
1F80FC
1F80FC
1F80FC
1F80FC
1F81FC
1F81FC
1FC1F8
1FC3F8
1FFFF0
1FFFF0
1F7FE0
1E1F80
ENDCHAR

STARTCHAR c
ENCODING 99
SWIDTH 580 0
DWIDTH 22 0
BBX 19 19 2 0
BITMAP
01FC00
0FFF00
1FFF80
3FFFC0
7F0FE0
7E07E0
FE07E0
FC03C0
FC0000
FC0000
FC0000
FE0000
FE00C0
7F01E0
7F87E0
3FFFC0
1FFF80
0FFF00
03F800
ENDCHAR

STARTCHAR d
ENCODING 100
SWIDTH 640 0
DWIDTH 24 0
BBX 22 27 2 0
BITMAP
0000E0
001FE0
003FE0
003FE0
003FE0
0007E0
0007E0
0007E0
07E7E0
1FFFE0
3FFFE0
3FFFE0
7F0FE0
FE07E0
FE07E0
FC07E0
FC07E0
FC07E0
FC07E0
FE07E0
FE07E0
FE07E0
7F9FE0
7FFFFC
3FFFFC
1FFBFC
07E3FC
ENDCHAR

STARTCHAR e
ENCODING 101
SWIDTH 580 0
DWIDTH 22 0
BBX 19 19 1 0
BITMAP
01F800
07FE00
1FFF00
3FFF80
3F0FC0
7E07C0
7E07E0
FFFFE0
FFFFE0
FFFFE0
FE0000
FE0000
7E0080
7F01C0
3F87E0
3FFFC0
1FFF80
07FF00
01FC00
ENDCHAR

STARTCHAR f
ENCODING 102
SWIDTH 380 0
DWIDTH 14 0
BBX 17 28 1 0
BITMAP
00FC00
03FF00
07FF80
0FFF80
1F9F80
1F8F00
1F8200
1F8000
1F8000
FFF000
FFF000
FFF000
FFF000
1F8000
1F8000
1F8000
1F8000
1F8000
1F8000
1F8000
1F8000
1F8000
1F8000
1F8000
FFF000
FFF000
FFF000
FFF000
ENDCHAR

STARTCHAR g
ENCODING 103
SWIDTH 580 0
DWIDTH 22 0
BBX 21 28 1 -8
BITMAP
000078
01F0F8
0FFEF8
1FFFF8
3FFF80
3F1F80
7E0FC0
7E0FC0
7E0FC0
7E0FC0
3F1F80
3FFF80
0FFF00
1FFE00
3EF000
7C0000
FF8000
7FFF00
7FFFE0
3FFFF0
1FFFF0
3E3FF8
7C01F8
FC01F8
FE03F0
7FFFE0
3FFFC0
07FE00
ENDCHAR

STARTCHAR h
ENCODING 104
SWIDTH 680 0
DWIDTH 26 0
BBX 24 28 1 0
BITMAP
038000
3F8000
FF8000
FF8000
FF8000
1F8000
1F8000
1F8000
1F8000
1F9FC0
1FBFF0
1FFFF0
1FFFF8
1FF3F8
1FC1F8
1F81F8
1F81F8
1F81F8
1F81F8
1F81F8
1F81F8
1F81F8
1F81F8
1F81F8
FFE7FF
FFE7FF
FFE7FF
FFE7FF
ENDCHAR

STARTCHAR i
ENCODING 105
SWIDTH 360 0
DWIDTH 14 0
BBX 12 27 1 0
BITMAP
0E00
1F00
3F80
3F80
3F80
1F00
0E00
0000
0380
3F80
FF80
FF80
FF80
1F80
1F80
1F80
1F80
1F80
1F80
1F80
1F80
1F80
1F80
FFF0
FFF0
FFF0
FFF0
ENDCHAR

STARTCHAR j
ENCODING 106
SWIDTH 340 0
DWIDTH 13 0
BBX 14 35 -4 -8
BITMAP
0070
00F8
01FC
01FC
01FC
00F8
0070
0000
001C
01FC
07FC
07FC
07FC
00FC
00FC
00FC
00FC
00FC
00FC
00FC
00FC
00FC
00FC
00FC
00FC
00FC
00FC
00FC
00FC
78FC
F8FC
FFF8
FFF8
7FF0
1FC0
ENDCHAR

STARTCHAR k
ENCODING 107
SWIDTH 660 0
DWIDTH 25 0
BBX 24 28 1 0
BITMAP
038000
3F8000
FF8000
FF8000
FF8000
1F8000
1F8000
1F8000
1F8000
1F9FFE
1F9FFE
1F9FFE
1F9FFE
1F87F0
1F8FE0
1F9F80
1FBE00
1FFF00
1FFF80
1FFFC0
1FEFE0
1F87E0
1F87F0
1F83F8
FFEFFF
FFEFFF
FFEFFF
FFEFFF
ENDCHAR

STARTCHAR l
ENCODING 108
SWIDTH 340 0
DWIDTH 13 0
BBX 12 28 1 0
BITMAP
0380
7F80
FF80
FF80
FF80
1F80
1F80
1F80
1F80
1F80
1F80
1F80
1F80
1F80
1F80
1F80
1F80
1F80
1F80
1F80
1F80
1F80
1F80
1F80
FFF0
FFF0
FFF0
FFF0
ENDCHAR

STARTCHAR m
ENCODING 109
SWIDTH 1000 0
DWIDTH 38 0
BBX 36 19 1 0
BITMAP
0F1FC1FC00
FF7FF7FF00
FFFFFFFF00
FFFFFFFF80
FFF3FF3F80
1FC1FC1F80
1F81F81F80
1F81F81F80
1F81F81F80
1F81F81F80
1F81F81F80
1F81F81F80
1F81F81F80
1F81F81F80
1F81F81F80
FFE7FE7FF0
FFE7FE7FF0
FFE7FE7FF0
FFE7FE7FF0
ENDCHAR

STARTCHAR n
ENCODING 110
SWIDTH 680 0
DWIDTH 26 0
BBX 24 19 1 0
BITMAP
0F1FC0
FF7FF0
FFFFF0
FFFFF8
FFF3F8
1FC1F8
1F81F8
1F81F8
1F81F8
1F81F8
1F81F8
1F81F8
1F81F8
1F81F8
1F81F8
FFE7FF
FFE7FF
FFE7FF
FFE7FF
ENDCHAR

STARTCHAR o
ENCODING 111
SWIDTH 620 0
DWIDTH 24 0
BBX 20 19 2 0
BITMAP
03FC00
0FFF00
1FFF80
3FFFC0
7F0FE0
7E07F0
FE07F0
FC03F0
FC03F0
FC03F0
FC03F0
FC03F0
FE07F0
7E07E0
7F0FE0
3FFFC0
1FFF80
0FFF00
03FC00
ENDCHAR

STARTCHAR p
ENCODING 112
SWIDTH 640 0
DWIDTH 24 0
BBX 21 27 1 -8
BITMAP
0F3F80
FF7FC0
FFFFE0
FFFFF0
FFE7F0
1F83F8
1F81F8
1F81F8
1F81F8
1F81F8
1F81F8
1F81F8
1F83F8
1F83F8
1FC7F0
1FFFE0
1FFFE0
1FFFC0
1FBF00
1F8000
1F8000
1F8000
1F8000
FFF000
FFF000
FFF000
FFF000
ENDCHAR

STARTCHAR q
ENCODING 113
SWIDTH 620 0
DWIDTH 24 0
BBX 22 27 2 -8
BITMAP
07E1E0
0FFBE0
3FFFE0
3FFFE0
7F0FE0
7E07E0
FE07E0
FE07E0
FC07E0
FC07E0
FC07E0
FE07E0
FE07E0
FE07E0
7F9FE0
7FFFE0
3FFFE0
1FFFE0
07E7E0
0007E0
0007E0
0007E0
0007E0
003FFC
003FFC
003FFC
003FFC
ENDCHAR

STARTCHAR r
ENCODING 114
SWIDTH 460 0
DWIDTH 17 0
BBX 16 19 1 0
BITMAP
071E
FF7F
FFFF
FFFF
FFFF
1FFE
1F80
1F80
1F80
1F80
1F80
1F80
1F80
1F80
1F80
FFF0
FFF0
FFF0
FFF0
ENDCHAR

STARTCHAR s
ENCODING 115
SWIDTH 520 0
DWIDTH 20 0
BBX 18 19 1 0
BITMAP
07C700
1FFF00
3FFF00
7FFF80
7C1F80
7E0780
7F8600
7FF000
3FFE00
1FFF80
07FFC0
10FFC0
F81FC0
7C07C0
7F07C0
7FFFC0
3FFF80
3BFF00
38F800
ENDCHAR

STARTCHAR t
ENCODING 116
SWIDTH 460 0
DWIDTH 17 0
BBX 16 25 1 0
BITMAP
0780
0780
0780
0F80
0F80
3F80
FFFE
FFFE
FFFE
FFFE
1F80
1F80
1F80
1F80
1F80
1F80
1F80
1F80
1F80
1F80
1FC3
1FFF
0FFF
07FF
01FC
ENDCHAR

STARTCHAR u
ENCODING 117
SWIDTH 660 0
DWIDTH 25 0
BBX 24 19 1 0
BITMAP
FF8FF8
FF8FF8
FF8FF8
FF8FF8
1F81F8
1F81F8
1F81F8
1F81F8
1F81F8
1F81F8
1F81F8
1F81F8
1F81F8
1F83F8
1FCFF8
1FFFFF
0FFFFF
07FCFF
03F0FF
ENDCHAR

STARTCHAR v
ENCODING 118
SWIDTH 600 0
DWIDTH 23 0
BBX 23 19 0 0
BITMAP
FFE7FE
FFE7FE
FFE7FE
FFE7FE
3F81F0
1F81F0
1FC1E0
0FC3E0
0FE3E0
07E3C0
07E7C0
03F780
03F780
03FF00
01FF00
01FE00
00FE00
00FE00
007C00
ENDCHAR

STARTCHAR w
ENCODING 119
SWIDTH 800 0
DWIDTH 30 0
BBX 30 19 0 0
BITMAP
FFDFFBFC
FFDFFBFC
FFDFFBFC
FFDFFBFC
3F87E0F0
1F87E1F0
1F83E1F0
1F87F1E0
0FC7F3E0
0FC7F3C0
0FCFFBC0
07EEFBC0
07EEFF80
07FCFF80
03FCFF80
03FC7F00
01F87F00
01F83E00
01F83E00
ENDCHAR

STARTCHAR x
ENCODING 120
SWIDTH 600 0
DWIDTH 23 0
BBX 23 19 0 0
BITMAP
7FF7FC
7FF7FC
7FF7FC
7FF7FC
1FE1F0
0FE3E0
07F3C0
03FB80
01FF00
01FF00
03DF80
079FC0
0F0FE0
1F0FF0
3E07F8
FF9FFE
FF9FFE
FF9FFE
FF9FFE
ENDCHAR

STARTCHAR y
ENCODING 121
SWIDTH 620 0
DWIDTH 24 0
BBX 23 28 0 -9
BITMAP
FFF7FE
FFF7FE
FFF7FE
FFF7FE
1FC0F8
1FC0F8
0FC1F0
0FE1F0
07E3E0
07F3E0
07F3C0
03F7C0
03FF80
01FF80
01FF00
00FF00
00FE00
007E00
007C00
007C00
007800
10F800
7CF000
7FF000
7FE000
7FE000
3FC000
0F0000
ENDCHAR

STARTCHAR z
ENCODING 122
SWIDTH 560 0
DWIDTH 21 0
BBX 20 19 1 0
BITMAP
1FFFE0
3FFFE0
3FFFE0
3FDFE0
7C3FC0
F87F80
70FF00
10FE00
01FC00
03F800
07F000
0FE0C0
1FC0F0
3F81E0
7F07E0
FFFFE0
FFFFC0
FFFFC0
FFFFC0
ENDCHAR

STARTCHAR braceleft
ENCODING 123
SWIDTH 320 0
DWIDTH 12 0
BBX 11 34 1 -8
BITMAP
00E0
0380
0F00
0E00
1E00
1E00
1E00
1E00
1F00
0F00
0F00
0F00
0F00
0E00
1C00
1800
E000
F000
1800
0E00
0E00
0F00
0F00
0F00
1F00
1F00
1E00
1E00
1E00
1E00
0E00
0700
0380
00E0
ENDCHAR

STARTCHAR bar
ENCODING 124
SWIDTH 600 0
DWIDTH 23 0
BBX 5 36 9 -8
BITMAP
F8
F8
F8
F8
F8
F8
F8
F8
F8
F8
F8
F8
F8
F8
F8
F8
F8
F8
F8
F8
F8
F8
F8
F8
F8
F8
F8
F8
F8
F8
F8
F8
F8
F8
F8
F8
ENDCHAR

STARTCHAR braceright
ENCODING 125
SWIDTH 320 0
DWIDTH 12 0
BBX 11 34 0 -8
BITMAP
E000
3C00
1E00
0E00
0F00
0F00
0F00
0F00
1F00
1E00
1E00
1E00
1E00
0E00
0700
0300
0060
01E0
0300
0F00
0E00
1E00
1E00
1E00
1E00
1F00
0F00
0F00
0F00
0F00
0E00
1C00
3800
E000
ENDCHAR

STARTCHAR asciitilde
ENCODING 126
SWIDTH 600 0
DWIDTH 23 0
BBX 19 7 2 9
BITMAP
0E0040
3FC0C0
7FF1E0
7FFFC0
F1FFC0
607F80
400E00
ENDCHAR

STARTCHAR space
ENCODING 160
SWIDTH 340 0
DWIDTH 16 0
BBX 0 0 0 0
BITMAP
ENDCHAR

STARTCHAR Aogonek
ENCODING 161
SWIDTH 720 0
DWIDTH 27 0
BBX 28 32 0 -6
BITMAP
001F8000
001FC000
003FC000
003FC000
007FE000
007FE000
007FE000
00FBF000
00F3F000
01F3F800
01F3F800
01E1F800
03E1FC00
03C1FC00
03FFFE00
07FFFE00
07FFFE00
0FFFFF00
0F807F00
0F007F00
1F003F80
1F003F80
FFC1FFF0
FFC1FFF0
FFC1FFF0
FFC1FBF0
00000700
00000E00
00000E20
00000FE0
00000FC0
00000780
ENDCHAR

STARTCHAR breve
ENCODING 162
SWIDTH 500 0
DWIDTH 19 0
BBX 13 6 3 21
BITMAP
E038
F078
7FF8
3FF0
1FE0
0F80
ENDCHAR

STARTCHAR Lslash
ENCODING 163
SWIDTH 640 0
DWIDTH 24 0
BBX 23 26 2 0
BITMAP
FFF000
FFF000
FFF000
FFF000
1F8000
1F8000
1F8400
1F8C00
1F9C00
1FFC00
1FF800
1FE000
1FC000
1F8000
3F8000
7F8010
FF801E
EF803C
9F803C
1F807C
1F80F8
1F83F8
FFFFF8
FFFFF0
FFFFF0
FFFFF0
ENDCHAR

STARTCHAR currency
ENCODING 164
SWIDTH 600 0
DWIDTH 23 0
BBX 20 20 1 3
BITMAP
200040
71F0E0
FBFEF0
7FFFE0
1FFF80
3F07C0
3C03C0
7C01E0
7801E0
7801E0
7801E0
7801E0
3C03E0
3C03C0
1F0F80
3FFFC0
7FFFE0
FBFEF0
70F0E0
200040
ENDCHAR

STARTCHAR Lcaron
ENCODING 165
SWIDTH 640 0
DWIDTH 24 0
BBX 23 26 2 0
BITMAP
FFF0E0
FFF1F0
FFF3F8
FFF3F8
1F83F8
1F8198
1F8078
1F8070
1F80F0
1F81E0
1F83C0
1F8180
1F8000
1F8000
1F8000
1F8010
1F801E
1F803C
1F803C
1F807C
1F80F8
1F83F8
FFFFF0
FFFFF0
FFFFF0
FFFFE0
ENDCHAR

STARTCHAR Sacute
ENCODING 166
SWIDTH 660 0
DWIDTH 25 0
BBX 23 35 2 0
BITMAP
000E00
001F00
007F00
00FF00
01FF00
03FE00
01E000
000000
000000
03FC70
0FFF70
3FFFF0
7FFFF8
7E07F8
FC01F8
FC00F8
FE007C
FF003C
7FF030
7FFE00
3FFFC0
1FFFF0
0FFFF8
01FFFC
603FFC
F003FE
F800FE
F8007E
FC007E
FF007C
7FC1FC
7FFFF8
7FFFF0
7BFFE0
707F00
ENDCHAR

STARTCHAR section
ENCODING 167
SWIDTH 600 0
DWIDTH 23 0
BBX 20 33 1 -7
BITMAP
01FC00
07FF00
1FFFC0
3FFFE0
3F0FE0
7E07E0
7E03E0
7F03E0
3FE000
3FFC00
1FFF00
0FFFC0
1FFFE0
3EFFF0
7C1FF0
7C03F0
7E01F0
7FC1F0
3FF9E0
3FFFE0
1FFFC0
07FFE0
00FFE0
001FF0
7807F0
FC03F0
FC03F0
FE03F0
FF07E0
7FFFC0
3FFF80
1FFF00
03F800
ENDCHAR

STARTCHAR dieresis
ENCODING 168
SWIDTH 500 0
DWIDTH 19 0
BBX 14 5 3 21
BITMAP
7038
F87C
F87C
F87C
7038
ENDCHAR

STARTCHAR Scaron
ENCODING 169
SWIDTH 660 0
DWIDTH 25 0
BBX 23 34 2 0
BITMAP
070380
0FEFC0
07FFC0
03FF00
00FC00
003800
000000
000000
03FC70
0FFF70
3FFFF0
7FFFF8
7E07F8
FC01F8
FC00F8
FE007C
FF003C
7FF030
7FFE00
3FFFC0
1FFFF0
0FFFF8
01FFFC
603FFC
F003FE
F800FE
F8007E
FC007E
FF007C
7FC1FC
7FFFF8
7FFFF0
7BFFE0
707F00
ENDCHAR

STARTCHAR Scommaaccent
ENCODING 170
SWIDTH 660 0
DWIDTH 25 0
BBX 23 36 2 -10
BITMAP
03FC70
0FFF70
3FFFF0
7FFFF8
7E07F8
FC01F8
FC00F8
FE007C
FF003C
7FF030
7FFE00
3FFFC0
1FFFF0
0FFFF8
01FFFC
603FFC
F003FE
F800FE
F8007E
FC007E
FF007C
7FC1FC
7FFFF8
7FFFF0
7BFFE0
70FF80
000000
000000
003800
007C00
007C00
003400
001C00
001800
003800
003000
ENDCHAR

STARTCHAR Tcaron
ENCODING 171
SWIDTH 700 0
DWIDTH 27 0
BBX 26 35 0 0
BITMAP
00802000
01C0E000
03FBF000
01FFE000
007F8000
003F0000
000C0000
00000000
1C000E00
3FFFFF00
3FFFFF00
3FFFFF00
7FFFFF80
7E3F1F80
7C3F0F80
F83F07C0
F03F03C0
F03F03C0
003F0000
003F0000
003F0000
003F0000
003F0000
003F0000
003F0000
003F0000
003F0000
003F0000
003F0000
003F0000
003F0000
01FFE000
01FFE000
01FFE000
01FFE000
ENDCHAR

STARTCHAR Zacute
ENCODING 172
SWIDTH 640 0
DWIDTH 24 0
BBX 23 35 1 0
BITMAP
000E00
001F00
007F00
00FF00
03FF00
01FC00
01C000
000000
000000
1FFFFC
1FFFFC
3FFFFC
3FFBFC
7F07F8
7C07F0
780FE0
F81FE0
F03FC0
603F80
007F00
00FF00
01FE00
01FC00
03F800
07F808
0FF01E
0FE01E
1FC03C
3FC07C
7F80FC
7F07F8
FFFFF8
FFFFF8
FFFFF0
FFFFF0
ENDCHAR

STARTCHAR hyphen
ENCODING 173
SWIDTH 360 0
DWIDTH 14 0
BBX 10 4 2 7
BITMAP
FFC0
FFC0
FFC0
FFC0
ENDCHAR

STARTCHAR Zcaron
ENCODING 174
SWIDTH 640 0
DWIDTH 24 0
BBX 23 35 1 0
BITMAP
020080
078380
0FFFC0
07FF80
01FF00
007C00
003000
000000
000000
1FFFFC
1FFFFC
3FFFFC
3FFBFC
7F07F8
7C07F0
780FE0
F81FE0
F03FC0
603F80
007F00
00FF00
01FE00
01FC00
03F800
07F808
0FF01E
0FE01E
1FC03C
3FC07C
7F80FC
7F07F8
FFFFF8
FFFFF8
FFFFF0
FFFFF0
ENDCHAR

STARTCHAR Zdotaccent
ENCODING 175
SWIDTH 640 0
DWIDTH 24 0
BBX 23 33 1 0
BITMAP
003800
007C00
007C00
007C00
003800
000000
000000
1FFFFC
1FFFFC
1FFFFC
3FFBFC
3F07F8
7C07F0
780FE0
F81FE0
F03FC0
703F80
007F80
00FF00
01FE00
01FC00
03FC00
07F808
0FF01E
0FE01E
1FE03E
3FC07C
7F80FC
7F03F8
FFFFF8
FFFFF8
FFFFF0
FFFFF0
ENDCHAR

STARTCHAR degree
ENCODING 176
SWIDTH 400 0
DWIDTH 15 0
BBX 10 9 3 17
BITMAP
3F00
7F80
E1C0
C0C0
C0C0
E0C0
E3C0
7F80
1F00
ENDCHAR

STARTCHAR aogonek
ENCODING 177
SWIDTH 580 0
DWIDTH 22 0
BBX 20 25 2 -6
BITMAP
03F000
1FFC00
3FFF00
7FFF00
7E1F80
7C1F80
7C1F80
181F80
03FF80
1FFF80
7FFF80
7F1F80
FC1F80
FC1F80
FC3F80
FFFFF0
7FFFF0
3FEFF0
1F01F0
000380
000700
000710
0007F0
0007E0
0001C0
ENDCHAR

STARTCHAR ogonek
ENCODING 178
SWIDTH 320 0
DWIDTH 12 0
BBX 7 6 3 -6
BITMAP
70
E0
E0
FE
FC
38
ENDCHAR

STARTCHAR lslash
ENCODING 179
SWIDTH 340 0
DWIDTH 13 0
BBX 12 28 1 0
BITMAP
0380
7F80
FF80
FF80
FF80
1F80
1F80
1F80
1F90
1FF0
1FF0
1FE0
1FC0
1F80
1F80
7F80
FF80
EF80
9F80
1F80
1F80
1F80
1F80
1F80
FFF0
FFF0
FFF0
FFF0
ENDCHAR

STARTCHAR acute
ENCODING 180
SWIDTH 400 0
DWIDTH 15 0
BBX 10 7 3 21
BITMAP
0700
0F80
1FC0
7F80
FF80
FE00
E000
ENDCHAR

STARTCHAR lcaron
ENCODING 181
SWIDTH 476 0
DWIDTH 18 0
BBX 17 28 1 0
BITMAP
038E00
3F9F00
FFBF00
FFBF80
FF9F80
1F9980
1F8700
1F8700
1F8E00
1FBE00
1F9C00
1F8800
1F8000
1F8000
1F8000
1F8000
1F8000
1F8000
1F8000
1F8000
1F8000
1F8000
1F8000
1F8000
FFF000
FFF000
FFF000
FFF000
ENDCHAR

STARTCHAR sacute
ENCODING 182
SWIDTH 520 0
DWIDTH 20 0
BBX 18 28 1 0
BITMAP
003800
007C00
01FC00
03FC00
07FC00
0FF000
078000
000000
000000
07C700
1FFF00
3FFF00
7FFF80
7C1F80
7E0780
7F8600
7FF000
3FFE00
1FFF80
07FFC0
10FFC0
F81FC0
7C07C0
7F07C0
7FFFC0
3FFF80
3BFF00
38F800
ENDCHAR

STARTCHAR caron
ENCODING 183
SWIDTH 500 0
DWIDTH 19 0
BBX 13 7 3 21
BITMAP
4010
F078
FFF8
7FF0
3FE0
0F80
0200
ENDCHAR

STARTCHAR commaaccent
ENCODING 184
SWIDTH 333 0
DWIDTH 13 0
BBX 5 8 4 -10
BITMAP
70
F8
F8
68
38
30
70
60
ENDCHAR

STARTCHAR scaron
ENCODING 185
SWIDTH 520 0
DWIDTH 20 0
BBX 18 28 1 0
BITMAP
080200
1C0E00
3FBF00
1FFE00
07FC00
03F000
00C000
000000
000000
07C700
1FFF00
3FFF00
7FFF80
7C1F80
7E0780
7F8600
7FF000
3FFE00
1FFF80
07FFC0
10FFC0
F81FC0
7C07C0
7F07C0
7FFFC0
3FFF80
3BFF00
38F800
ENDCHAR

STARTCHAR scommaaccent
ENCODING 186
SWIDTH 520 0
DWIDTH 20 0
BBX 18 29 1 -10
BITMAP
07C700
1FFF00
3FFF00
7FFF80
7C1F80
7E0F80
7F8600
7FF000
3FFE00
1FFF00
07FF80
10FFC0
F81FC0
7C07C0
7F0FC0
7FFFC0
3FFF80
3BFF00
39FC00
000000
000000
01E000
01F000
01F000
00D000
007000
007000
00E000
004000
ENDCHAR

STARTCHAR tcaron
ENCODING 187
SWIDTH 566 0
DWIDTH 22 0
BBX 16 28 2 0
BITMAP
000E
000F
078F
0787
0783
0786
0F8C
1F84
3F80
FFFE
FFFE
FFFE
FFFE
1F80
1F80
1F80
1F80
1F80
1F80
1F80
1F80
1F80
1F80
1FC3
1FFF
0FFF
07FF
01FC
ENDCHAR

STARTCHAR zacute
ENCODING 188
SWIDTH 560 0
DWIDTH 21 0
BBX 20 28 1 0
BITMAP
003C00
007E00
01FE00
03FE00
07FC00
07E000
020000
000000
000000
1FFFE0
3FFFE0
3FFFE0
3FDFE0
7C3FC0
F87F80
70FF00
10FE00
01FC00
03F800
07F000
0FE0C0
1FC0F0
3F81E0
7F07E0
FFFFE0
FFFFC0
FFFFC0
FFFFC0
ENDCHAR

STARTCHAR hungarumlaut
ENCODING 189
SWIDTH 440 0
DWIDTH 17 0
BBX 11 7 4 21
BITMAP
70C0
71E0
F1E0
F1C0
E380
C300
8200
ENDCHAR

STARTCHAR zcaron
ENCODING 190
SWIDTH 560 0
DWIDTH 21 0
BBX 20 28 1 0
BITMAP
0C0300
0F9F00
1FFF80
07FE00
01F800
00F000
002000
000000
000000
1FFFE0
3FFFE0
3FFFE0
3FDFE0
7C3FC0
F87F80
70FF00
10FE00
01FC00
03F800
07F000
0FE0C0
1FC0F0
3F81E0
7F07E0
FFFFE0
FFFFC0
FFFFC0
FFFFC0
ENDCHAR

STARTCHAR zdotaccent
ENCODING 191
SWIDTH 560 0
DWIDTH 21 0
BBX 20 27 1 0
BITMAP
003800
007C00
007C00
007C00
003800
000000
000000
000000
1FFFE0
1FFFE0
3FFFE0
3FFFE0
3E1FC0
7C3F80
787F80
10FF00
01FE00
03FC00
07F800
0FF060
1FE0F0
3FC1F0
7F03E0
FFFFE0
FFFFE0
FFFFC0
FFFFC0
ENDCHAR

STARTCHAR Racute
ENCODING 192
SWIDTH 780 0
DWIDTH 30 0
BBX 28 35 1 0
BITMAP
0001C000
0007E000
000FE000
001FE000
003FE000
007F8000
00380000
00000000
00000000
FFFFF800
FFFFFE00
FFFFFF00
FFFFFF80
1F807F80
1F803FC0
1F801FC0
1F801FC0
1F801FC0
1F803FC0
1F807F80
1FFFFF00
1FFFFE00
1FFFFC00
1FFFE000
1F8FF000
1F87F800
1F83F800
1F83FC00
1F81FE00
1F80FF00
1FC07F80
FFF87FF0
FFF83FF0
FFF81FF0
FFF80FF0
ENDCHAR

STARTCHAR Aacute
ENCODING 193
SWIDTH 720 0
DWIDTH 27 0
BBX 27 35 0 0
BITMAP
00018000
0007C000
000FE000
001FE000
003FC000
007F8000
00780000
00000000
00000000
001F8000
003F8000
003FC000
007FC000
007FC000
007FE000
00FFE000
00F7F000
00F7F000
01F3F000
01E3F800
03E3F800
03E1F800
03C1FC00
07FFFC00
07FFFE00
0FFFFE00
0FFFFE00
0F007F00
1F007F00
1F007F80
3F003F80
FFC1FFE0
FFC1FFE0
FFC1FFE0
FFC1FFE0
ENDCHAR

STARTCHAR Acircumflex
ENCODING 194
SWIDTH 720 0
DWIDTH 27 0
BBX 27 34 0 0
BITMAP
000E0000
003F8000
007FE000
01FFF800
01F9F000
00C07000
00000000
00000000
001F8000
003F8000
003FC000
007FC000
007FC000
007FE000
00FFE000
00F7F000
00F7F000
01F3F000
01E3F800
03E3F800
03E1F800
03C1FC00
07FFFC00
07FFFE00
0FFFFE00
0FFFFE00
0F007F00
1F007F00
1F007F80
3F003F80
FFC1FFE0
FFC1FFE0
FFC1FFE0
FFC1FFE0
ENDCHAR

STARTCHAR Abreve
ENCODING 195
SWIDTH 720 0
DWIDTH 27 0
BBX 27 34 0 0
BITMAP
01C03800
01F0F000
00FFF000
007FE000
003FC000
001F0000
00000000
00000000
001F8000
003F8000
003FC000
007FC000
007FC000
007FE000
00FFE000
00F7F000
00F7F000
01F3F000
01E3F800
03E3F800
03E1F800
03C1FC00
07FFFC00
07FFFE00
0FFFFE00
0FFFFE00
0F007F00
1F007F00
1F007F80
3F003F80
FFC1FFE0
FFC1FFE0
FFC1FFE0
FFC1FFE0
ENDCHAR

STARTCHAR Adieresis
ENCODING 196
SWIDTH 720 0
DWIDTH 27 0
BBX 28 33 0 0
BITMAP
00E07000
01F0F800
01F0F800
01F0F800
00E07000
00000000
00000000
001F8000
001FC000
003FC000
003FC000
007FE000
007FE000
007FE000
00FBF000
00F3F000
01F3F800
01F3F800
01E1F800
03E1FC00
03C0FC00
07FFFE00
07FFFE00
07FFFE00
0FFFFF00
0F807F00
1F007F80
1F003F80
1F003FC0
FFC1FFF0
FFC1FFF0
FFC1FFF0
FFC1FFF0
ENDCHAR

STARTCHAR Lacute
ENCODING 197
SWIDTH 640 0
DWIDTH 24 0
BBX 23 35 2 0
BITMAP
000400
001F00
003F00
007F00
01FF00
03FE00
01E000
000000
000000
FFF000
FFF000
FFF000
FFF000
1F8000
1F8000
1F8000
1F8000
1F8000
1F8000
1F8000
1F8000
1F8000
1F8000
1F8000
1F8010
1F801E
1F803C
1F803C
1F807C
1F80F8
1F83F8
FFFFF8
FFFFF0
FFFFF0
FFFFF0
ENDCHAR

STARTCHAR Cacute
ENCODING 198
SWIDTH 740 0
DWIDTH 28 0
BBX 26 34 1 0
BITMAP
00078000
000FC000
001FC000
007FC000
00FF8000
00FC0000
00400000
00000000
007F8E00
03FFFE00
07FFFE00
0FFFFF00
1FE0FF00
3FC03F00
7F801F00
7F000F80
7F000780
FE000780
FE000000
FE000000
FE000000
FE000000
FE000000
FF000000
FF000000
7F000380
7F8003C0
3FC00F80
3FE01F80
1FF87F00
0FFFFE00
07FFFC00
03FFF000
007FC000
ENDCHAR

STARTCHAR Ccedilla
ENCODING 199
SWIDTH 740 0
DWIDTH 28 0
BBX 26 34 1 -8
BITMAP
007F8E00
03FFFE00
07FFFF00
0FFFFF00
1FF07F00
3FC03F00
7F801F80
7F000F80
7F000780
FF000780
FE000000
FE000000
FE000000
FE000000
FE000000
FF000000
FF000000
7F000180
7F8003C0
3FC007C0
3FE01F80
1FF87F00
0FFFFE00
07FFFC00
01FFF000
007F8000
001C0000
001F8000
0003C000
0001C000
003BC000
003FC000
003F8000
000E0000
ENDCHAR

STARTCHAR Ccaron
ENCODING 200
SWIDTH 740 0
DWIDTH 28 0
BBX 26 34 1 0
BITMAP
01806000
01F3E000
03FFF000
00FFC000
003F8000
001E0000
00040000
00000000
007F8E00
03FFFE00
07FFFE00
0FFFFF00
1FE0FF00
3FC03F00
7F801F00
7F000F80
7F000780
FE000780
FE000000
FE000000
FE000000
FE000000
FE000000
FF000000
FF000000
7F000380
7F8003C0
3FC00F80
3FE01F80
1FF87F00
0FFFFE00
07FFFC00
03FFF000
007FC000
ENDCHAR

STARTCHAR Eacute
ENCODING 201
SWIDTH 720 0
DWIDTH 27 0
BBX 26 35 2 0
BITMAP
00038000
000FC000
001FC000
003FC000
007F8000
00FF0000
00F00000
00000000
00000000
FFFFFC00
FFFFFC00
FFFFFE00
3FFFFE00
1F807E00
1F801F00
1F800F00
1F838780
1F838600
1F878000
1FFF8000
1FFF8000
1FFF8000
1FFF8000
1F878000
1F838300
1F8383C0
1F838780
1F800780
1F800F80
1F803F00
1FC0FF00
FFFFFF00
FFFFFE00
FFFFFE00
FFFFFE00
ENDCHAR

STARTCHAR Eogonek
ENCODING 202
SWIDTH 720 0
DWIDTH 27 0
BBX 26 32 2 -6
BITMAP
FFFFFC00
FFFFFC00
FFFFFC00
3FFFFE00
1F807E00
1F801F00
1F800F00
1F878F00
1F878600
1F878000
1FFF8000
1FFF8000
1FFF8000
1FFF8000
1F878000
1F878300
1F8783C0
1F878780
1F800F80
1F801F00
1F803F00
1F80FF00
FFFFFE00
FFFFFE00
FFFFFE00
FFFFBC00
00007000
0000E000
0000E200
0000FE00
0000FC00
00003800
ENDCHAR

STARTCHAR Edieresis
ENCODING 203
SWIDTH 720 0
DWIDTH 27 0
BBX 26 33 1 0
BITMAP
01C0E000
03E1F000
03E1F000
03E1F000
01C0E000
00000000
00000000
FFFFFC00
FFFFFC00
FFFFFE00
3FFFFE00
1F807E00
1F801F00
1F800F00
1F838780
1F838600
1F878000
1FFF8000
1FFF8000
1FFF8000
1FFF8000
1F878000
1F838300
1F8383C0
1F838780
1F800780
1F800F80
1F803F00
1FC0FF00
FFFFFF00
FFFFFE00
FFFFFE00
FFFFFE00
ENDCHAR

STARTCHAR Ecaron
ENCODING 204
SWIDTH 720 0
DWIDTH 27 0
BBX 26 35 2 0
BITMAP
01002000
01C1E000
03FFF000
01FFE000
00FF8000
003F0000
000C0000
00000000
00000000
FFFFFC00
FFFFFC00
FFFFFE00
3FFFFE00
1F807E00
1F801F00
1F800F00
1F838780
1F838600
1F878000
1FFF8000
1FFF8000
1FFF8000
1FFF8000
1F878000
1F838300
1F8383C0
1F838780
1F800780
1F800F80
1F803F00
1FC0FF00
FFFFFF00
FFFFFE00
FFFFFE00
FFFFFE00
ENDCHAR

STARTCHAR Iacute
ENCODING 205
SWIDTH 400 0
DWIDTH 15 0
BBX 12 35 2 0
BITMAP
0080
03C0
0FE0
1FE0
3FC0
7F80
7C00
0000
0000
FFF0
FFF0
FFF0
FFF0
1F80
1F80
1F80
1F80
1F80
1F80
1F80
1F80
1F80
1F80
1F80
1F80
1F80
1F80
1F80
1F80
1F80
1F80
FFF0
FFF0
FFF0
FFF0
ENDCHAR

STARTCHAR Icircumflex
ENCODING 206
SWIDTH 400 0
DWIDTH 15 0
BBX 14 34 1 0
BITMAP
0300
0FC0
3FF0
7FF8
FEFC
7038
0000
0000
7FF8
7FF8
7FF8
7FF8
0FC0
0FC0
0FC0
0FC0
0FC0
0FC0
0FC0
0FC0
0FC0
0FC0
0FC0
0FC0
0FC0
0FC0
0FC0
0FC0
0FC0
0FC0
7FF8
7FF8
7FF8
7FF8
ENDCHAR

STARTCHAR Dcaron
ENCODING 207
SWIDTH 780 0
DWIDTH 30 0
BBX 27 35 2 0
BITMAP
00802000
01E0E000
03FFF000
01FFE000
007FC000
001F0000
000C0000
00000000
00000000
FFFFE000
FFFFF800
FFFFFE00
3FFFFF00
1F81FF80
1F807F80
1F803FC0
1F801FC0
1F801FC0
1F800FE0
1F800FE0
1F800FE0
1F800FE0
1F800FE0
1F800FE0
1F800FE0
1F801FE0
1F801FC0
1F801FC0
1F803F80
1F807F80
1F83FF00
FFFFFE00
FFFFFC00
FFFFF000
FFFF8000
ENDCHAR

STARTCHAR Dcroat
ENCODING 208
SWIDTH 780 0
DWIDTH 30 0
BBX 27 26 2 0
BITMAP
FFFFE000
FFFFF800
FFFFFE00
3FFFFF00
1F80FF80
1F807F80
1F803FC0
1F801FC0
1F801FE0
1F800FE0
1F800FE0
FFFC0FE0
FFFC0FE0
FFFC0FE0
1F800FE0
1F800FE0
1F801FC0
1F801FC0
1F803FC0
1F803F80
1F80FF80
1FC3FF00
FFFFFE00
FFFFFC00
FFFFF000
FFFF8000
ENDCHAR

STARTCHAR Nacute
ENCODING 209
SWIDTH 740 0
DWIDTH 28 0
BBX 25 35 2 0
BITMAP
00020000
000F8000
001F8000
003F8000
007F8000
00FF0000
00F80000
00000000
00000000
FFC1FF80
FFE1FF80
FFE1FF80
FFF1FF80
1FF03C00
1FF83C00
1FF83C00
1EFC3C00
1EFC3C00
1E7E3C00
1E7E3C00
1E3F3C00
1E3F3C00
1E1FBC00
1E1FBC00
1E0FFC00
1E0FFC00
1E07FC00
1E07FC00
1E03FC00
1E03FC00
1E01FC00
FFC1FC00
FFC0FC00
FFC0FC00
FFC07C00
ENDCHAR

STARTCHAR Ncaron
ENCODING 210
SWIDTH 740 0
DWIDTH 28 0
BBX 25 34 2 0
BITMAP
0180C000
03F7E000
03FFE000
00FF8000
007F0000
001C0000
00000000
00000000
FFC1FF80
FFE1FF80
FFE1FF80
FFF1FF80
1FF03C00
1FF83C00
1FF83C00
1EFC3C00
1EFC3C00
1E7E3C00
1E7E3C00
1E3F3C00
1E3F3C00
1E1FBC00
1E1FBC00
1E0FFC00
1E0FFC00
1E07FC00
1E07FC00
1E03FC00
1E03FC00
1E01FC00
FFC1FC00
FFC0FC00
FFC0FC00
FFC07C00
ENDCHAR

STARTCHAR Oacute
ENCODING 211
SWIDTH 800 0
DWIDTH 30 0
BBX 28 34 1 0
BITMAP
0003C000
0007E000
001FE000
003FE000
007FC000
007E0000
00200000
00000000
007FE000
01FFF800
07FFFE00
0FFFFF00
1FF07F80
3FC03FC0
3F801FE0
7F800FE0
7F000FE0
FF000FF0
FE0007F0
FE0007F0
FE0007F0
FE0007F0
FE0007F0
FE0007F0
FF000FF0
7F000FE0
7F000FE0
3F801FE0
3FC03FC0
1FF0FF80
0FFFFF00
07FFFE00
01FFF800
007FE000
ENDCHAR

STARTCHAR Ocircumflex
ENCODING 212
SWIDTH 800 0
DWIDTH 30 0
BBX 28 34 1 0
BITMAP
00060000
001F8000
007FE000
00FFF000
01FFF800
00E07000
00801000
00000000
007FE000
01FFF800
07FFFE00
0FFFFF00
1FF07F80
3FC03FC0
3F801FE0
7F800FE0
7F000FE0
FF000FF0
FE0007F0
FE0007F0
FE0007F0
FE0007F0
FE0007F0
FE0007F0
FF000FF0
7F000FE0
7F000FE0
3F801FE0
3FC03FC0
1FF0FF80
0FFFFF00
07FFFE00
01FFF800
007FE000
ENDCHAR

STARTCHAR Ohungarumlaut
ENCODING 213
SWIDTH 800 0
DWIDTH 30 0
BBX 28 35 1 0
BITMAP
00081000
003C7000
003C7800
003CF000
0038F000
0070E000
0060C000
00208000
00000000
007FE000
01FFF800
07FFFE00
0FFFFF00
1FF07F80
3FC03FC0
3F801FE0
7F800FE0
7F000FE0
FF000FF0
FE0007F0
FE0007F0
FE0007F0
FE0007F0
FE0007F0
FE0007F0
FF000FF0
7F000FE0
7F000FE0
3F801FE0
3FC03FC0
1FF0FF80
0FFFFF00
07FFFE00
01FFF800
007FE000
ENDCHAR

STARTCHAR Odieresis
ENCODING 214
SWIDTH 800 0
DWIDTH 30 0
BBX 28 33 1 0
BITMAP
00E07000
01F0F800
01F0F800
01F0F800
00E07000
00000000
00000000
007FE000
01FFF800
07FFFE00
0FFFFF00
1FF07F80
3FC03FC0
3F801FE0
7F800FE0
7F000FE0
FF000FF0
FE0007F0
FE0007F0
FE0007F0
FE0007F0
FE0007F0
FE0007F0
FF000FF0
7F000FE0
7F000FE0
3F801FE0
3FC03FC0
1FF0FF80
0FFFFF00
07FFFE00
01FFF800
007FE000
ENDCHAR

STARTCHAR multiply
ENCODING 215
SWIDTH 600 0
DWIDTH 23 0
BBX 17 18 3 4
BITMAP
200200
600600
F00F00
F81F80
7C3F00
3E7E00
1F7C00
0FF800
03F000
07E000
0FF000
1FF800
3F7C00
7E3E00
FC1F00
F80F80
700700
200200
ENDCHAR

STARTCHAR Rcaron
ENCODING 216
SWIDTH 780 0
DWIDTH 30 0
BBX 28 35 1 0
BITMAP
00801000
00E07000
01FFF800
00FFF000
003FC000
001F8000
00060000
00000000
00000000
FFFFF800
FFFFFE00
FFFFFF00
FFFFFF80
1F807F80
1F803FC0
1F801FC0
1F801FC0
1F801FC0
1F803FC0
1F807F80
1FFFFF00
1FFFFE00
1FFFFC00
1FFFE000
1F8FF000
1F87F800
1F83F800
1F83FC00
1F81FE00
1F80FF00
1FC07F80
FFF87FF0
FFF83FF0
FFF81FF0
FFF80FF0
ENDCHAR

STARTCHAR Uring
ENCODING 217
SWIDTH 740 0
DWIDTH 28 0
BBX 26 36 1 0
BITMAP
001E0000
003F0000
00738000
00618000
00618000
00738000
003F0000
001E0000
00000000
00000000
FFF0FFC0
FFF0FFC0
FFF0FFC0
FFF0FFC0
1F801F00
1F801E00
1F801E00
1F801E00
1F801E00
1F801E00
1F801E00
1F801E00
1F801E00
1F801E00
1F801E00
1F801E00
1F801E00
1F801E00
1FC01E00
1FC03E00
1FE07E00
0FF0FC00
07FFF800
07FFF800
01FFE000
007F8000
ENDCHAR

STARTCHAR Uacute
ENCODING 218
SWIDTH 740 0
DWIDTH 28 0
BBX 26 35 1 0
BITMAP
00010000
00078000
000FC000
003FC000
007FC000
00FF0000
00780000
00000000
00000000
FFF0FFC0
FFF0FFC0
FFF0FFC0
FFF0FFC0
1F801F00
1F801E00
1F801E00
1F801E00
1F801E00
1F801E00
1F801E00
1F801E00
1F801E00
1F801E00
1F801E00
1F801E00
1F801E00
1F801E00
1FC01E00
1FC03E00
1FE07E00
0FF0FC00
07FFF800
07FFF800
01FFE000
007F8000
ENDCHAR

STARTCHAR Uhungarumlaut
ENCODING 219
SWIDTH 740 0
DWIDTH 28 0
BBX 26 35 1 0
BITMAP
00306000
0038F000
0078E000
0079E000
0071C000
00E18000
00C10000
00000000
00000000
FFF0FFC0
FFF0FFC0
FFF0FFC0
FFF0FFC0
1F801F00
1F801E00
1F801E00
1F801E00
1F801E00
1F801E00
1F801E00
1F801E00
1F801E00
1F801E00
1F801E00
1F801E00
1F801E00
1F801E00
1FC01E00
1FC03E00
1FE07E00
0FF0FC00
07FFF800
07FFF800
01FFE000
007F8000
ENDCHAR

STARTCHAR Udieresis
ENCODING 220
SWIDTH 740 0
DWIDTH 28 0
BBX 26 33 1 0
BITMAP
01C0E000
03E1F000
03E1F000
03E1F000
01C0E000
00000000
00000000
FFF0FFC0
FFF0FFC0
FFF0FFC0
FFF0FFC0
1F801F00
1F801E00
1F801E00
1F801E00
1F801E00
1F801E00
1F801E00
1F801E00
1F801E00
1F801E00
1F801E00
1F801E00
1F801E00
1F801E00
1FC01E00
1FC03E00
1FE07E00
0FF0FC00
07FFF800
07FFF800
01FFE000
007F8000
ENDCHAR

STARTCHAR Yacute
ENCODING 221
SWIDTH 700 0
DWIDTH 27 0
BBX 26 35 0 0
BITMAP
00010000
00078000
001FC000
003FC000
007FC000
00FF0000
00780000
00000000
00000000
FFF8FFC0
FFF8FFC0
FFF8FFC0
FFF8FFC0
3FC03F00
1FE03E00
0FE07C00
0FF07C00
07F0F800
03F9F000
03FDF000
01FFE000
00FFC000
00FFC000
007F8000
003F0000
003F0000
003F0000
003F0000
003F0000
003F0000
003F0000
01FFE000
01FFE000
01FFE000
01FFE000
ENDCHAR

STARTCHAR Tcommaaccent
ENCODING 222
SWIDTH 700 0
DWIDTH 27 0
BBX 26 36 0 -9
BITMAP
1C000600
1FFFFF00
3FFFFF00
3FFFFF00
7FFFFF80
7E3F1F80
7C3F0F80
F83F07C0
F03F03C0
F03F03C0
003F0000
003F0000
003F0000
003F0000
003F0000
003F0000
003F0000
003F0000
003F0000
003F0000
003F0000
003F0000
003F0000
01FFE000
01FFE000
01FFE000
01FFE000
00000000
000C0000
001F0000
001F0000
000D0000
00070000
00060000
000E0000
000C0000
ENDCHAR

STARTCHAR germandbls
ENCODING 223
SWIDTH 660 0
DWIDTH 25 0
BBX 23 28 1 0
BITMAP
00FF00
03FFC0
07FFE0
0FFFF0
0FC3F0
1F83F0
1F81F8
1F87F0
1F9FF0
FF9FC0
FFBE00
FFBE00
FFBF00
1FBFC0
1F9FE0
1F9FF0
1F8FF8
1F87FC
1F83FE
1F80FE
1F807E
1F983E
1FBC3E
1FFE7E
FFBFFC
FFBFF8
FF9FF0
FF87C0
ENDCHAR

STARTCHAR racute
ENCODING 224
SWIDTH 460 0
DWIDTH 17 0
BBX 16 28 1 0
BITMAP
00F0
01F8
03F8
07F8
1FF0
0FC0
0C00
0000
0000
071E
FF7F
FFFF
FFFF
FFFF
1FFE
1F80
1F80
1F80
1F80
1F80
1F80
1F80
1F80
1F80
FFF0
FFF0
FFF0
FFF0
ENDCHAR

STARTCHAR aacute
ENCODING 225
SWIDTH 580 0
DWIDTH 22 0
BBX 20 28 1 0
BITMAP
001800
007C00
00FE00
01FE00
03FC00
07F800
038000
000000
000000
03F000
0FFE00
3FFF00
7FFF00
7E1F80
7C1F80
7C1F80
181F80
03FF80
1FFF80
7FFF80
7F1F80
FC1F80
FC1F80
FE3F80
FFFFF0
7FFFF0
3FE7F0
1F03F0
ENDCHAR

STARTCHAR acircumflex
ENCODING 226
SWIDTH 580 0
DWIDTH 22 0
BBX 20 28 1 0
BITMAP
002000
00F000
03F800
07FE00
1FFF80
0F9F00
0C0300
000000
000000
03F000
0FFE00
3FFF00
7FFF00
7E1F80
7C1F80
7C1F80
181F80
03FF80
1FFF80
7FFF80
7F1F80
FC1F80
FC1F80
FE3F80
FFFFF0
7FFFF0
3FE7F0
1F03F0
ENDCHAR

STARTCHAR abreve
ENCODING 227
SWIDTH 580 0
DWIDTH 22 0
BBX 20 27 1 0
BITMAP
1C0380
0F0F00
0FFF00
07FE00
03FC00
00F000
000000
000000
03F000
0FFE00
3FFF00
7FFF00
7E1F80
7C1F80
7C1F80
181F80
03FF80
1FFF80
7FFF80
7F1F80
FC1F80
FC1F80
FE3F80
FFFFF0
7FFFF0
3FE7F0
1F03F0
ENDCHAR

STARTCHAR adieresis
ENCODING 228
SWIDTH 580 0
DWIDTH 22 0
BBX 20 26 1 0
BITMAP
0E0700
1F0F80
1F0F80
1F0F80
0E0700
000000
000000
03F000
1FFE00
3FFF00
7FFF00
7E1F80
7C1F80
7C1F80
381F80
03FF80
1FFF80
7FFF80
7F1F80
FC1F80
FC1F80
FE3F80
FFFFF0
7FFFF0
3FE7F0
1F03F0
ENDCHAR

STARTCHAR lacute
ENCODING 229
SWIDTH 340 0
DWIDTH 13 0
BBX 12 35 1 0
BITMAP
03C0
07C0
1FE0
3FC0
7FC0
7E00
6000
0380
7F80
FF80
FF80
FF80
1F80
1F80
1F80
1F80
1F80
1F80
1F80
1F80
1F80
1F80
1F80
1F80
1F80
1F80
1F80
1F80
1F80
1F80
1F80
FFF0
FFF0
FFF0
FFF0
ENDCHAR

STARTCHAR cacute
ENCODING 230
SWIDTH 580 0
DWIDTH 22 0
BBX 19 28 2 0
BITMAP
003800
007C00
00FE00
03FC00
07FC00
07F000
070000
000000
000000
01FC00
0FFF00
1FFF80
3FFFC0
7F0FE0
7E07E0
FE07E0
FC03C0
FC0000
FC0000
FC0000
FE0000
FE00C0
7F01E0
7F87E0
3FFFC0
1FFF80
0FFF00
03FC00
ENDCHAR

STARTCHAR ccedilla
ENCODING 231
SWIDTH 580 0
DWIDTH 22 0
BBX 20 27 1 -8
BITMAP
01FC00
07FF80
1FFFC0
3FFFE0
7F8FE0
7F07E0
FE03E0
FE03E0
FC0000
FC0000
FE0000
FE0000
FE0040
7F01E0
7FC3F0
3FFFE0
1FFF80
07FF00
01F800
00E000
00FC00
001E00
000E00
018E00
01FE00
01FC00
007000
ENDCHAR

STARTCHAR ccaron
ENCODING 232
SWIDTH 580 0
DWIDTH 22 0
BBX 19 28 2 0
BITMAP
080200
1E0F00
1FFF00
0FFE00
07FC00
01F000
004000
000000
000000
01FC00
0FFF00
1FFF80
3FFFC0
7F0FE0
7E07E0
FE07E0
FC03C0
FC0000
FC0000
FC0000
FE0000
FE00C0
7F01E0
7F87E0
3FFFC0
1FFF80
0FFF00
03FC00
ENDCHAR

STARTCHAR eacute
ENCODING 233
SWIDTH 580 0
DWIDTH 22 0
BBX 19 28 1 0
BITMAP
001800
007C00
00FE00
01FC00
03FC00
07F800
078000
000000
000000
01F800
07FE00
1FFF00
3FFF80
3F0FC0
7E07C0
7E07E0
FFFFE0
FFFFE0
FFFFE0
FE0000
FE0000
7E0080
7F01C0
3F87E0
3FFFC0
1FFF80
07FF00
01FC00
ENDCHAR

STARTCHAR eogonek
ENCODING 234
SWIDTH 580 0
DWIDTH 22 0
BBX 19 25 2 -6
BITMAP
01F800
0FFE00
1FFF00
3FFF80
7F0FC0
7E07C0
FE07E0
FFFFE0
FFFFE0
FFFFE0
FC0000
FE0000
FE0080
7F01C0
7F87E0
3FFFC0
1FFF80
0FFF00
03FC00
00E000
01C000
01C400
01FC00
01F800
007000
ENDCHAR

STARTCHAR edieresis
ENCODING 235
SWIDTH 580 0
DWIDTH 22 0
BBX 19 26 1 0
BITMAP
0E0700
1F0F80
1F0F80
1F0F80
0E0700
000000
000000
00F800
07FE00
0FFF80
1FFFC0
3F07C0
7F07C0
7E03E0
FFFFE0
FFFFE0
FFFFE0
FE0000
FE0000
7F0040
7F01C0
3FC3E0
3FFFE0
1FFFC0
07FF00
01FC00
ENDCHAR

STARTCHAR ecaron
ENCODING 236
SWIDTH 580 0
DWIDTH 22 0
BBX 19 28 1 0
BITMAP
080100
0E0F00
1FDF00
0FFF00
07FC00
01F800
006000
000000
000000
01F800
07FE00
1FFF00
3FFF80
3F0FC0
7E07C0
7E07E0
FFFFE0
FFFFE0
FFFFE0
FE0000
FE0000
7E0080
7F01C0
3F87E0
3FFFC0
1FFF80
07FF00
01FC00
ENDCHAR

STARTCHAR iacute
ENCODING 237
SWIDTH 360 0
DWIDTH 14 0
BBX 12 28 1 0
BITMAP
01C0
07E0
0FE0
1FE0
3FC0
7F80
3800
0000
0000
0380
3F80
FF80
FF80
FF80
1F80
1F80
1F80
1F80
1F80
1F80
1F80
1F80
1F80
1F80
FFF0
FFF0
FFF0
FFF0
ENDCHAR

STARTCHAR icircumflex
ENCODING 238
SWIDTH 360 0
DWIDTH 14 0
BBX 14 28 0 0
BITMAP
0100
0780
1FE0
3FF0
FFFC
7CF8
6018
0000
0000
01C0
1FC0
7FC0
7FC0
7FC0
0FC0
0FC0
0FC0
0FC0
0FC0
0FC0
0FC0
0FC0
0FC0
0FC0
7FF8
7FF8
7FF8
7FF8
ENDCHAR

STARTCHAR dcaron
ENCODING 239
SWIDTH 758 0
DWIDTH 29 0
BBX 27 28 2 0
BITMAP
0000E380
000FE7C0
003FEFC0
003FEFE0
003FE7E0
003FE660
0007E1C0
0007E1C0
0007E3C0
07F7E780
1FFFEF00
3FFFE600
3FFFE000
7F0FE000
FE07E000
FE07E000
FC07E000
FC07E000
FC07E000
FC07E000
FE07E000
FE07E000
FE07E000
7F9FE000
7FFFFC00
3FFFFC00
1FFBFC00
07E3FC00
ENDCHAR

STARTCHAR dcroat
ENCODING 240
SWIDTH 640 0
DWIDTH 24 0
BBX 22 27 2 0
BITMAP
0000E0
001FE0
003FE0
003FE0
0007E0
03FFFC
03FFFC
0007E0
03E7E0
0FFFE0
3FFFE0
3FFFE0
7F0FE0
7E07E0
FE07E0
FC07E0
FC07E0
FC07E0
FC07E0
FE07E0
FE07E0
FE07E0
7F9FE0
7FFFFC
3FFFFC
1FFBFC
07E3FC
ENDCHAR

STARTCHAR nacute
ENCODING 241
SWIDTH 680 0
DWIDTH 26 0
BBX 24 28 1 0
BITMAP
000F00
001F80
003F80
007F80
01FF00
01FC00
008000
000000
000000
0F1FC0
FF7FF0
FFFFF0
FFFFF8
FFF3F8
1FC1F8
1F81F8
1F81F8
1F81F8
1F81F8
1F81F8
1F81F8
1F81F8
1F81F8
1F81F8
FFE7FF
FFE7FF
FFE7FF
FFE7FF
ENDCHAR

STARTCHAR ncaron
ENCODING 242
SWIDTH 680 0
DWIDTH 26 0
BBX 24 28 1 0
BITMAP
0300C0
03C7C0
07FFE0
01FF80
00FF00
003C00
000800
000000
000000
0F1FC0
FF7FF0
FFFFF0
FFFFF8
FFF3F8
1FC1F8
1F81F8
1F81F8
1F81F8
1F81F8
1F81F8
1F81F8
1F81F8
1F81F8
1F81F8
FFE7FF
FFE7FF
FFE7FF
FFE7FF
ENDCHAR

STARTCHAR oacute
ENCODING 243
SWIDTH 620 0
DWIDTH 24 0
BBX 20 28 2 0
BITMAP
003C00
007E00
00FE00
01FE00
03FC00
07F000
030000
000000
000000
03FC00
0FFF00
1FFF80
3FFFC0
7F0FE0
7E07F0
FE07F0
FC03F0
FC03F0
FC03F0
FC03F0
FC03F0
FE07F0
7E07E0
7F0FE0
3FFFC0
1FFF80
0FFF00
03FC00
ENDCHAR

STARTCHAR ocircumflex
ENCODING 244
SWIDTH 620 0
DWIDTH 24 0
BBX 20 28 2 0
BITMAP
006000
00F000
03FC00
07FE00
1FFF80
0F0F00
0C0300
000000
000000
03FC00
0FFF00
1FFF80
3FFFC0
7F0FE0
7E07F0
FE07F0
FC03F0
FC03F0
FC03F0
FC03F0
FC03F0
FE07F0
7E07E0
7F0FE0
3FFFC0
1FFF80
0FFF00
03FC00
ENDCHAR

STARTCHAR ohungarumlaut
ENCODING 245
SWIDTH 620 0
DWIDTH 24 0
BBX 20 28 2 0
BITMAP
01C700
03C700
03CF00
038F00
030E00
070C00
060800
000000
000000
03FC00
0FFF00
1FFF80
3FFFC0
7F0FE0
7E07F0
FE07F0
FC03F0
FC03F0
FC03F0
FC03F0
FC03F0
FE07F0
7E07E0
7F0FE0
3FFFC0
1FFF80
0FFF00
03FC00
ENDCHAR

STARTCHAR odieresis
ENCODING 246
SWIDTH 620 0
DWIDTH 24 0
BBX 20 26 2 0
BITMAP
0E0700
1F0F80
1F0F80
1F0F80
0E0700
000000
000000
03FC00
0FFF00
1FFF80
3FFFC0
7F0FE0
7E07F0
FE07F0
FC03F0
FC03F0
FC03F0
FC03F0
FC03F0
FE07F0
7E07E0
7F0FE0
3FFFC0
1FFF80
0FFF00
03FC00
ENDCHAR

STARTCHAR divide
ENCODING 247
SWIDTH 600 0
DWIDTH 23 0
BBX 19 17 2 4
BITMAP
00E000
01F000
01F000
01F000
00E000
000000
000000
FFFFE0
FFFFE0
FFFFE0
000000
000000
00E000
01F000
01F000
01F000
00E000
ENDCHAR

STARTCHAR rcaron
ENCODING 248
SWIDTH 460 0
DWIDTH 17 0
BBX 16 28 1 0
BITMAP
1004
3E3E
7FFE
1FFC
0FF0
03C0
0080
0000
0000
071E
FF7F
FFFF
FFFF
FFFF
1FFE
1F80
1F80
1F80
1F80
1F80
1F80
1F80
1F80
1F80
FFF0
FFF0
FFF0
FFF0
ENDCHAR

STARTCHAR uring
ENCODING 249
SWIDTH 660 0
DWIDTH 25 0
BBX 24 30 1 0
BITMAP
003C00
007E00
00E700
00C300
00C300
00E700
007E00
003C00
000000
000000
000000
FF8FF8
FF8FF8
FF8FF8
FF8FF8
1F81F8
1F81F8
1F81F8
1F81F8
1F81F8
1F81F8
1F81F8
1F81F8
1F81F8
1F83F8
1FCFF8
1FFFFF
0FFFFF
07FCFF
03F8FF
ENDCHAR

STARTCHAR uacute
ENCODING 250
SWIDTH 660 0
DWIDTH 25 0
BBX 24 28 1 0
BITMAP
000F00
001F80
003F80
007F80
00FF00
01FC00
008000
000000
000000
FF8FF8
FF8FF8
FF8FF8
FF8FF8
1F81F8
1F81F8
1F81F8
1F81F8
1F81F8
1F81F8
1F81F8
1F81F8
1F81F8
1F83F8
1FCFF8
1FFFFF
0FFFFF
07FCFF
03F8FF
ENDCHAR

STARTCHAR uhungarumlaut
ENCODING 251
SWIDTH 660 0
DWIDTH 25 0
BBX 24 28 1 0
BITMAP
0071C0
00F1E0
00F3C0
00E3C0
00C380
018300
008200
000000
000000
FF8FF8
FF8FF8
FF8FF8
FF8FF8
1F81F8
1F81F8
1F81F8
1F81F8
1F81F8
1F81F8
1F81F8
1F81F8
1F81F8
1F83F8
1FCFF8
1FFFFF
0FFFFF
07FCFF
03F8FF
ENDCHAR

STARTCHAR udieresis
ENCODING 252
SWIDTH 660 0
DWIDTH 25 0
BBX 24 26 1 0
BITMAP
0381C0
07C3E0
07C3E0
07C3E0
0381C0
000000
000000
FF8FF8
FF8FF8
FF8FF8
FF8FF8
1F81F8
1F81F8
1F81F8
1F81F8
1F81F8
1F81F8
1F81F8
1F81F8
1F81F8
1F83F8
1FCFF8
1FFFFF
0FFFFF
07FCFF
03F8FF
ENDCHAR

STARTCHAR yacute
ENCODING 253
SWIDTH 620 0
DWIDTH 24 0
BBX 23 37 0 -9
BITMAP
000F00
001F80
003F80
00FF80
01FF00
01F800
008000
000000
000000
FFF7FE
FFF7FE
FFF7FE
FFF7FE
1FC0F8
1FC0F8
0FC1F0
0FE1F0
07E3E0
07F3E0
07F3C0
03F7C0
03FF80
01FF80
01FF00
00FF00
00FE00
007E00
007C00
007C00
007800
10F800
7CF000
7FF000
7FE000
7FE000
3FC000
0F0000
ENDCHAR

STARTCHAR tcommaaccent
ENCODING 254
SWIDTH 460 0
DWIDTH 17 0
BBX 16 34 1 -9
BITMAP
0780
0780
0780
0F80
1F80
3F80
FFFE
FFFE
FFFE
FFFE
1F80
1F80
1F80
1F80
1F80
1F80
1F80
1F80
1F80
1F80
1FC3
1FFF
0FFF
07FF
01F8
0000
0180
03E0
03E0
01A0
00E0
00C0
01C0
0180
ENDCHAR

STARTCHAR dotaccent
ENCODING 255
SWIDTH 320 0
DWIDTH 12 0
BBX 5 5 4 21
BITMAP
70
F8
F8
F8
70
ENDCHAR
ENDFONT
